<?xml version="1.0" standalone="no"?>
<!DOCTYPE svg PUBLIC "-//W3C//DTD SVG 20010904//EN"
 "http://www.w3.org/TR/2001/REC-SVG-20010904/DTD/svg10.dtd">
<svg version="1.0" xmlns="http://www.w3.org/2000/svg"
 width="700.000000pt" height="700.000000pt" viewBox="0 0 700.000000 700.000000"
 preserveAspectRatio="xMidYMid meet">
<metadata>
Created by potrace 1.14, written by Peter Selinger 2001-2017
</metadata>
<g transform="translate(0.000000,700.000000) scale(0.100000,-0.100000)"
fill="#000000" stroke="none">
<path d="M3355 5701 c-67 -16 -99 -48 -110 -111 -8 -41 -8 -2504 -1 -2538 8
-36 43 -78 78 -93 24 -10 82 -14 213 -14 202 1 235 9 270 68 19 31 20 55 21
577 l0 545 515 5 c382 4 520 8 536 17 40 23 64 77 67 150 5 109 -15 157 -79
191 -26 14 -94 16 -525 18 -272 1 -499 2 -505 3 -11 1 -13 766 -2 777 8 8 44
8 692 0 560 -7 541 -9 583 74 19 38 22 59 21 135 -2 107 -18 150 -69 180 -34
20 -48 20 -855 21 -451 1 -833 -2 -850 -5z"/>
<path d="M935 5109 c-69 -8 -101 -26 -122 -68 -17 -34 -18 -104 -18 -1316 0
-1206 1 -1282 18 -1312 32 -60 55 -67 217 -73 227 -8 285 7 322 81 15 30 17
92 17 593 1 308 4 562 6 565 3 2 102 5 221 5 l215 1 138 -240 c75 -132 143
-249 149 -260 97 -167 312 -549 312 -556 0 -5 5 -9 10 -9 6 0 10 -6 10 -13 0
-7 18 -40 40 -73 59 -90 71 -94 292 -94 100 0 194 2 208 5 34 7 60 36 66 76 5
30 -8 57 -113 237 -65 111 -139 239 -165 285 -26 45 -52 89 -57 97 -5 8 -77
130 -159 272 -83 141 -157 267 -166 280 l-16 25 77 22 c103 30 244 99 315 156
160 126 236 297 236 525 0 228 -56 385 -188 520 -131 135 -323 222 -565 255
-27 3 -66 9 -85 12 -47 7 -1152 10 -1215 2z m1175 -359 c148 -30 233 -88 284
-191 30 -63 41 -125 40 -244 -1 -115 -11 -173 -39 -230 -52 -108 -123 -155
-306 -202 -13 -3 -180 -8 -371 -10 l-348 -5 0 451 0 452 328 -2 c268 -1 342
-4 412 -19z"/>
<path d="M4185 3883 c-37 -7 -67 -27 -81 -55 -19 -36 -18 -61 5 -100 47 -82
100 -178 128 -228 17 -30 106 -190 198 -355 92 -165 183 -329 203 -365 20 -36
46 -83 58 -105 57 -100 59 -83 -18 -166 -39 -41 -122 -130 -186 -198 -65 -69
-130 -139 -147 -157 -16 -17 -82 -87 -146 -155 -64 -68 -131 -140 -149 -159
-18 -19 -86 -91 -150 -160 -65 -69 -130 -138 -145 -155 -15 -16 -64 -68 -109
-115 -171 -180 -176 -187 -176 -224 0 -25 7 -40 26 -55 24 -19 39 -20 247 -20
164 0 233 4 262 14 46 16 73 44 345 350 107 121 211 237 230 259 46 50 62 68
140 157 36 40 72 80 80 89 8 9 46 51 83 93 38 42 72 77 75 77 4 0 18 -24 31
-53 14 -28 78 -162 144 -297 65 -135 132 -272 147 -305 65 -141 148 -304 169
-333 13 -19 36 -35 59 -42 52 -14 470 -13 513 1 48 16 68 36 75 75 7 39 -4 65
-104 240 -38 65 -84 146 -102 179 -18 33 -81 146 -140 250 -59 105 -119 213
-135 240 -15 28 -41 75 -58 105 -39 71 -134 241 -147 260 -5 8 -21 37 -35 63
l-26 48 38 42 c20 23 42 47 48 53 5 6 65 69 132 140 67 71 134 143 149 159 15
17 86 92 158 169 72 76 147 155 166 175 19 21 68 73 109 117 41 43 126 134
190 202 120 127 141 158 133 197 -8 45 -38 50 -286 50 -208 -1 -235 -3 -271
-20 -49 -24 -81 -56 -310 -309 -5 -6 -59 -65 -120 -131 -60 -67 -148 -163
-195 -214 -118 -129 -141 -153 -145 -149 -3 4 -121 232 -275 533 -111 217
-135 256 -175 278 -19 11 -459 19 -510 10z"/>
</g>
</svg>
