<?xml version="1.0" encoding="UTF-8" standalone="no"?>
<svg
   xmlns:dc="http://purl.org/dc/elements/1.1/"
   xmlns:cc="http://creativecommons.org/ns#"
   xmlns:rdf="http://www.w3.org/1999/02/22-rdf-syntax-ns#"
   xmlns:svg="http://www.w3.org/2000/svg"
   xmlns="http://www.w3.org/2000/svg"
   xmlns:sodipodi="http://sodipodi.sourceforge.net/DTD/sodipodi-0.dtd"
   xmlns:inkscape="http://www.inkscape.org/namespaces/inkscape"
   version="1.1"
   id="svg833"
   xml:space="preserve"
   width="92.538666"
   height="92.538666"
   viewBox="0 0 92.538666 92.538666"
   sodipodi:docname="ruifengx-avatar.svg"
   inkscape:version="1.0.1 (3bc2e813f5, 2020-09-07)"><metadata
     id="metadata839"><rdf:RDF><cc:Work
         rdf:about=""><dc:format>image/svg+xml</dc:format><dc:type
           rdf:resource="http://purl.org/dc/dcmitype/StillImage" /><dc:title></dc:title></cc:Work></rdf:RDF></metadata><defs
     id="defs837" /><sodipodi:namedview
     pagecolor="#ffffff"
     bordercolor="#666666"
     borderopacity="1"
     objecttolerance="10"
     gridtolerance="10"
     guidetolerance="10"
     inkscape:pageopacity="0"
     inkscape:pageshadow="2"
     inkscape:window-width="2560"
     inkscape:window-height="1334"
     id="namedview835"
     showgrid="false"
     inkscape:zoom="9.3582503"
     inkscape:cx="46.269333"
     inkscape:cy="46.269333"
     inkscape:window-x="-11"
     inkscape:window-y="-11"
     inkscape:window-maximized="1"
     inkscape:current-layer="g841" /><g
     id="g841"
     inkscape:groupmode="layer"
     inkscape:label="ruifengx-logo"
     transform="matrix(1.3333333,0,0,-1.3333333,0,92.538667)"><g
       id="g843"
       transform="translate(8.281,18.962)"><g
         id="g845"
         transform="scale(1.1,1.4)"><g
           id="g847"
           transform="translate(-8.281,-18.962)"><g
             aria-label="R"
             transform="matrix(1,0,0,-1,8.281,22.264)"
             id="text851"
             style="font-variant:normal;font-weight:bold;font-size:24.7871px;font-family:LMRoman12;-inkscape-font-specification:LMRoman12-Bold;writing-mode:lr-tb;fill:#8fbc8f;fill-opacity:1;fill-rule:nonzero;stroke:none"><path
               d="m 21.267332,-2.3547745 c 0,-0.5453162 -0.34702,-0.5453162 -0.594891,-0.5453162 -0.520529,0 -0.545316,0.247871 -0.570103,0.5701033 -0.123936,1.1649937 -0.842761,1.7103099 -1.586374,1.7103099 -1.487226,0 -1.71031,-1.7598841 -1.834246,-2.8009423 -0.04957,-0.2726581 -0.247871,-1.982968 -0.272658,-2.1069035 -0.347019,-1.735097 -1.71031,-2.503497 -2.776155,-2.9000906 2.875303,-0.743613 4.139446,-2.3547741 4.139446,-3.9907231 0,-2.503497 -2.726581,-4.585613 -7.386556,-4.585613 H 0.96669689 v 1.164993 H 3.6437037 V -1.1649937 H 0.96669689 V 0 C 1.8590325,-0.0743613 4.2881683,-0.0743613 5.3292265,-0.0743613 c 1.0410582,0 3.4701939,0 4.3625295,0.0743613 V -1.1649937 H 7.0147493 v -6.8908137 h 2.9000906 c 0.3470191,0 1.4376521,0 2.2060521,0.8427613 0.793187,0.8675485 0.793187,1.3385034 0.793187,3.1479617 0,1.6359486 0,2.8505165 1.735097,3.6932779 1.090632,0.5453162 2.627433,0.6444646 3.643704,0.6444646 2.652219,0 2.974452,-2.230839 2.974452,-2.6274326 z M 13.979924,-12.39355 c 0,1.388078 0,3.445407 -4.0898712,3.445407 H 7.0147493 v -6.890814 H 9.939627 c 3.990723,0 4.040297,1.933394 4.040297,3.445407 z"
               id="path863" /></g><g
             aria-label="F"
             transform="matrix(1,0,0,-1,25.226,26.666)"
             id="text855"
             style="font-variant:normal;font-weight:bold;font-size:24.7871px;font-family:LMRoman12;-inkscape-font-specification:LMRoman12-Bold;writing-mode:lr-tb;fill:#add8e6;fill-opacity:1;fill-rule:nonzero;stroke:none"><path
               d="m 16.731292,-10.881537 -0.7684,-5.973691 H 0.96669689 v 1.164994 H 3.6437037 V -1.1649937 H 0.96669689 V 0 C 1.9086067,-0.0743613 4.4121038,-0.0743613 5.5027362,-0.0743613 c 1.2145679,0 3.9163617,0 5.0069938,0.0743613 V -1.1649937 H 7.1634719 v -6.6925169 h 1.2393549 c 2.3795612,0 2.6026452,1.0658452 2.6026452,2.9000906 h 1.164994 v -6.965175 h -1.164994 c 0,1.834245 -0.198296,2.9000907 -2.6026452,2.9000907 H 7.1634719 v -6.6677297 h 3.4701941 c 3.990723,0 4.560826,1.908606 4.932633,4.808697 z"
               id="path866" /></g><g
             aria-label="X"
             transform="matrix(1,0,0,-1,32.845,18.962)"
             id="text859"
             style="font-style:italic;font-variant:normal;font-weight:bold;font-size:24.7871px;font-family:LMRoman10;-inkscape-font-specification:LMRoman10-BoldItalic;writing-mode:lr-tb;fill:#ffa07a;fill-opacity:1;fill-rule:nonzero;stroke:none"><path
               d="m 20.127125,-0.7188259 c 0,-0.4461678 -0.421381,-0.4461678 -0.793187,-0.4461678 h -0.297445 c -0.223084,0 -0.594891,0 -0.817975,-0.024787 -0.371806,-0.049574 -0.396593,-0.074361 -0.520529,-0.3718065 l -3.321471,-8.20453 4.734336,-5.1309297 c 0.59489,-0.644465 1.437652,-0.94191 3.024026,-0.94191 0.446168,0 0.842762,0 0.842762,-0.718826 0,-0.272658 -0.198297,-0.446167 -0.495742,-0.446167 -0.892336,0 -1.834246,0.07436 -2.751369,0.07436 -1.065845,0 -2.181264,-0.07436 -3.24711,-0.07436 -0.223084,0 -0.694038,0 -0.694038,0.718825 0,0.421381 0.42138,0.446168 0.644464,0.446168 0.07436,0 0.917123,0.04957 1.487226,0.272658 l -4.089871,4.436891 -1.834246,-4.536039 c 0.842762,-0.17351 1.462439,-0.17351 1.561588,-0.17351 0.247871,0 0.669251,0 0.669251,-0.718826 0,-0.322232 -0.247871,-0.446167 -0.545316,-0.446167 -1.214568,0 -2.47871,0.07436 -3.6932778,0.07436 -1.1154195,0 -2.2556261,-0.07436 -3.3462584,-0.07436 -0.1982968,0 -0.6940388,0 -0.6940388,0.718825 0,0.446168 0.4213807,0.446168 0.7931872,0.446168 h 0.2974452 c 0.2230839,0 0.5948904,0 0.8179742,0.02479 0.3718065,0.04958 0.3965936,0.07436 0.5205291,0.371807 l 2.8753033,7.0891104 -5.7506068,6.2463491 c -0.5701033,0.5948904 -1.2889292,0.9171227 -2.974452,0.9419098 -0.4709549,0 -0.8923356,0 -0.8923356,0.7188259 C 1.6359486,-0.3222323 1.7103099,0 2.1316906,0 3.0240262,0 3.965936,-0.0743613 4.8830587,-0.0743613 5.948904,-0.0743613 7.0643235,0 8.1301687,0 c 0.247871,0 0.6940388,0 0.6940388,-0.7188259 0,-0.4213807 -0.4461678,-0.4461678 -0.5453162,-0.4461678 -0.1982968,0 -0.9171226,-0.024787 -1.5615872,-0.2726581 l 5.0813559,-5.5275233 2.280413,5.6266717 c -0.7684,0.1487226 -1.462439,0.1735097 -1.561588,0.1735097 -0.198296,0 -0.669251,0.024787 -0.669251,0.7188259 C 11.848234,-0.3222323 11.897808,0 12.39355,0 13.608118,0 14.87226,-0.0743613 16.086828,-0.0743613 17.202247,-0.0743613 18.342454,0 19.433086,0 c 0.247871,0 0.694039,0 0.694039,-0.7188259 z"
               id="path869" /></g><g
             id="g861"
             transform="translate(8.281,18.962)" /></g></g></g></g></svg>
